<svg xmlns="http://www.w3.org/2000/svg" width="956" height="638" viewBox="0 0 956 638">
<title>Dependency graph</title>
<style>
	.background { fill: #ffffff; }
	.directory { stroke: #c5ccc9; stroke-width: 1; }
	.depth1 { fill: #f2f4f3; }
	.depth2 { fill: #e8ecea; }
	.depth3 { fill: #dfe4e2; }
	.file { fill: #ffffff; stroke: #9aa6a1; stroke-width: 1; }
	text { font-family: Helvetica, Arial, 'Liberation Sans', sans-serif; font-size: 12px; }
	.label { fill: #1b2220; text-anchor: middle; }
	.directory-label { fill: #66736d; font-weight: 600; }
	.edge { fill: none; stroke: #5f6b66; stroke-width: 1; stroke-opacity: 0.7; }
	.arrowhead { fill: #5f6b66; }
	svg { --outgoing: #d9480f; --incoming: #1971c2; }
	.background, .edge { pointer-events: none; }
	.node { cursor: default; }
	.node:hover .file { stroke-width: 2; }
	.arrowhead-dim { fill: #5f6b66; fill-opacity: 0.15; }
	.arrowhead-outgoing { fill: var(--outgoing); }
	.arrowhead-incoming { fill: var(--incoming); }
	@media (prefers-color-scheme: dark) {
		svg { --outgoing: #ff922b; --incoming: #4dabf7; }
		.arrowhead-dim { fill: #8b949e; }
		.background { fill: #0d1117; }
		.directory { stroke: #39424d; }
		.depth1 { fill: #161b22; }
		.depth2 { fill: #1c232c; }
		.depth3 { fill: #232b35; }
		.file { fill: #0d1117; stroke: #5c6773; }
		.label { fill: #e6edf3; }
		.directory-label { fill: #8b949e; }
		.edge { stroke: #8b949e; }
		.arrowhead { fill: #8b949e; }
	}
	svg:has(.node:hover) .edge { stroke-opacity: 0.15; marker-end: url(#arrow-dim); }
	svg:has(.n22:hover) .inner-n22, svg:has(.n24:hover) .inner-n24, svg:has(.n23:hover) .inner-n23 { stroke-opacity: 0.7; marker-end: url(#arrow); }
	svg:has(.n0:hover) .from-n0, svg:has(.n23:hover) .out-n23, svg:has(.n1:hover) .from-n1, svg:has(.n3:hover) .from-n3, svg:has(.n5:hover) .from-n5, svg:has(.n6:hover) .from-n6, svg:has(.n7:hover) .from-n7, svg:has(.n8:hover) .from-n8, svg:has(.n9:hover) .from-n9, svg:has(.n11:hover) .from-n11, svg:has(.n12:hover) .from-n12, svg:has(.n14:hover) .from-n14, svg:has(.n15:hover) .from-n15, svg:has(.n16:hover) .from-n16, svg:has(.n17:hover) .from-n17, svg:has(.n19:hover) .from-n19, svg:has(.n20:hover) .from-n20 { stroke: var(--outgoing); stroke-opacity: 1; marker-end: url(#arrow-outgoing); }
	svg:has(.n1:hover) .to-n1, svg:has(.n24:hover) .in-n24, svg:has(.n2:hover) .to-n2, svg:has(.n4:hover) .to-n4, svg:has(.n6:hover) .to-n6, svg:has(.n7:hover) .to-n7, svg:has(.n3:hover) .to-n3, svg:has(.n8:hover) .to-n8, svg:has(.n10:hover) .to-n10, svg:has(.n9:hover) .to-n9, svg:has(.n13:hover) .to-n13, svg:has(.n17:hover) .to-n17, svg:has(.n18:hover) .to-n18, svg:has(.n0:hover) .to-n0, svg:has(.n23:hover) .in-n23, svg:has(.n5:hover) .to-n5, svg:has(.n11:hover) .to-n11, svg:has(.n12:hover) .to-n12, svg:has(.n14:hover) .to-n14, svg:has(.n15:hover) .to-n15, svg:has(.n16:hover) .to-n16, svg:has(.n19:hover) .to-n19 { stroke: var(--incoming); stroke-opacity: 1; marker-end: url(#arrow-incoming); }
	svg:has(.n0:hover) .n1 .file, svg:has(.n23:hover) .n1 .file, svg:has(.n1:hover) .n2 .file, svg:has(.n3:hover) .n4 .file, svg:has(.n23:hover) .n4 .file, svg:has(.n5:hover) .n6 .file, svg:has(.n23:hover) .n6 .file, svg:has(.n5:hover) .n1 .file, svg:has(.n5:hover) .n7 .file, svg:has(.n23:hover) .n7 .file, svg:has(.n5:hover) .n3 .file, svg:has(.n6:hover) .n1 .file, svg:has(.n7:hover) .n8 .file, svg:has(.n7:hover) .n1 .file, svg:has(.n7:hover) .n10 .file, svg:has(.n7:hover) .n9 .file, svg:has(.n8:hover) .n9 .file, svg:has(.n9:hover) .n2 .file, svg:has(.n9:hover) .n1 .file, svg:has(.n11:hover) .n2 .file, svg:has(.n23:hover) .n2 .file, svg:has(.n11:hover) .n1 .file, svg:has(.n11:hover) .n9 .file, svg:has(.n23:hover) .n9 .file, svg:has(.n12:hover) .n9 .file, svg:has(.n12:hover) .n13 .file, svg:has(.n23:hover) .n13 .file, svg:has(.n14:hover) .n1 .file, svg:has(.n15:hover) .n2 .file, svg:has(.n15:hover) .n13 .file, svg:has(.n16:hover) .n17 .file, svg:has(.n23:hover) .n17 .file, svg:has(.n16:hover) .n2 .file, svg:has(.n16:hover) .n8 .file, svg:has(.n23:hover) .n8 .file, svg:has(.n16:hover) .n1 .file, svg:has(.n16:hover) .n10 .file, svg:has(.n23:hover) .n10 .file, svg:has(.n16:hover) .n18 .file, svg:has(.n23:hover) .n18 .file, svg:has(.n16:hover) .n9 .file, svg:has(.n17:hover) .n8 .file, svg:has(.n19:hover) .n1 .file, svg:has(.n19:hover) .n7 .file, svg:has(.n19:hover) .n4 .file, svg:has(.n20:hover) .n0 .file, svg:has(.n20:hover) .n5 .file, svg:has(.n20:hover) .n11 .file, svg:has(.n20:hover) .n12 .file, svg:has(.n20:hover) .n14 .file, svg:has(.n20:hover) .n15 .file, svg:has(.n20:hover) .n16 .file, svg:has(.n20:hover) .n19 .file, svg:has(.n20:hover) .n1 .file { stroke: var(--outgoing); }
	svg:has(.n1:hover) .n0 .file, svg:has(.n24:hover) .n0 .file, svg:has(.n2:hover) .n1 .file, svg:has(.n4:hover) .n3 .file, svg:has(.n24:hover) .n3 .file, svg:has(.n6:hover) .n5 .file, svg:has(.n24:hover) .n5 .file, svg:has(.n1:hover) .n5 .file, svg:has(.n7:hover) .n5 .file, svg:has(.n3:hover) .n5 .file, svg:has(.n1:hover) .n6 .file, svg:has(.n8:hover) .n7 .file, svg:has(.n1:hover) .n7 .file, svg:has(.n10:hover) .n7 .file, svg:has(.n9:hover) .n7 .file, svg:has(.n9:hover) .n8 .file, svg:has(.n2:hover) .n9 .file, svg:has(.n1:hover) .n9 .file, svg:has(.n2:hover) .n11 .file, svg:has(.n24:hover) .n11 .file, svg:has(.n1:hover) .n11 .file, svg:has(.n9:hover) .n11 .file, svg:has(.n9:hover) .n12 .file, svg:has(.n24:hover) .n12 .file, svg:has(.n13:hover) .n12 .file, svg:has(.n1:hover) .n14 .file, svg:has(.n24:hover) .n14 .file, svg:has(.n2:hover) .n15 .file, svg:has(.n24:hover) .n15 .file, svg:has(.n13:hover) .n15 .file, svg:has(.n17:hover) .n16 .file, svg:has(.n24:hover) .n16 .file, svg:has(.n2:hover) .n16 .file, svg:has(.n8:hover) .n16 .file, svg:has(.n1:hover) .n16 .file, svg:has(.n10:hover) .n16 .file, svg:has(.n18:hover) .n16 .file, svg:has(.n9:hover) .n16 .file, svg:has(.n8:hover) .n17 .file, svg:has(.n1:hover) .n19 .file, svg:has(.n24:hover) .n19 .file, svg:has(.n7:hover) .n19 .file, svg:has(.n4:hover) .n19 .file, svg:has(.n0:hover) .n20 .file, svg:has(.n23:hover) .n20 .file, svg:has(.n5:hover) .n20 .file, svg:has(.n11:hover) .n20 .file, svg:has(.n12:hover) .n20 .file, svg:has(.n14:hover) .n20 .file, svg:has(.n15:hover) .n20 .file, svg:has(.n16:hover) .n20 .file, svg:has(.n19:hover) .n20 .file, svg:has(.n1:hover) .n20 .file, svg:has(.n24:hover) .n20 .file { stroke: var(--incoming); }
	svg:has(.n22:hover) .directory.n22, svg:has(.n23:hover) .directory.n23, svg:has(.n24:hover) .directory.n24 { stroke-width: 2; }
</style>
<defs>
<marker id="arrow" viewBox="0 0 8 8" refX="8" refY="4" markerWidth="5" markerHeight="5" orient="auto"><path class="arrowhead" d="M0,0 L8,4 L0,8 z"/></marker>
<marker id="arrow-dim" viewBox="0 0 8 8" refX="8" refY="4" markerWidth="5" markerHeight="5" orient="auto"><path class="arrowhead-dim" d="M0,0 L8,4 L0,8 z"/></marker>
<marker id="arrow-outgoing" viewBox="0 0 8 8" refX="8" refY="4" markerWidth="5" markerHeight="5" orient="auto"><path class="arrowhead-outgoing" d="M0,0 L8,4 L0,8 z"/></marker>
<marker id="arrow-incoming" viewBox="0 0 8 8" refX="8" refY="4" markerWidth="5" markerHeight="5" orient="auto"><path class="arrowhead-incoming" d="M0,0 L8,4 L0,8 z"/></marker>
</defs>
<rect class="background" width="956" height="638"/>
<rect class="directory depth1 node n22" x="12" y="12" width="931.02" height="614" rx="6"/>
<rect class="directory depth2 node n23" x="33" y="112" width="900.02" height="114" rx="6"/>
<g class="node n0">
<rect class="file" x="43" y="140" width="60.02" height="24" rx="4"/>
<text class="label" x="73.01" y="156" textLength="44.02" lengthAdjust="spacingAndGlyphs">check.ts</text>
</g>
<g class="node n3">
<rect class="file" x="171" y="192" width="112.04" height="24" rx="4"/>
<text class="label" x="227.02" y="208" textLength="96.04" lengthAdjust="spacingAndGlyphs">deps-graph-svg.ts</text>
</g>
<g class="node n5">
<rect class="file" x="120" y="140" width="89.37" height="24" rx="4"/>
<text class="label" x="164.68" y="156" textLength="73.37" lengthAdjust="spacingAndGlyphs">deps-graph.ts</text>
</g>
<g class="node n11">
<rect class="file" x="599" y="140" width="102.71" height="24" rx="4"/>
<text class="label" x="650.36" y="156" textLength="86.71" lengthAdjust="spacingAndGlyphs">deps-upgrade.ts</text>
</g>
<g class="node n12">
<rect class="file" x="718" y="140" width="104.69" height="24" rx="4"/>
<text class="label" x="770.35" y="156" textLength="88.69" lengthAdjust="spacingAndGlyphs">doc-command.ts</text>
</g>
<g class="node n14">
<rect class="file" x="367" y="140" width="103.36" height="24" rx="4"/>
<text class="label" x="418.68" y="156" textLength="87.36" lengthAdjust="spacingAndGlyphs">doc-typescript.ts</text>
</g>
<g class="node n15">
<rect class="file" x="839" y="140" width="84.02" height="24" rx="4"/>
<text class="label" x="881.01" y="156" textLength="68.02" lengthAdjust="spacingAndGlyphs">markdown.ts</text>
</g>
<g class="node n16">
<rect class="file" x="487" y="140" width="95.36" height="24" rx="4"/>
<text class="label" x="534.68" y="156" textLength="79.36" lengthAdjust="spacingAndGlyphs">release-npm.ts</text>
</g>
<g class="node n19">
<rect class="file" x="278" y="140" width="72.69" height="24" rx="4"/>
<text class="label" x="314.34" y="156" textLength="56.69" lengthAdjust="spacingAndGlyphs">treemap.ts</text>
</g>
<rect class="directory depth2 node n24" x="165" y="278" width="696.02" height="338" rx="6"/>
<g class="node n1">
<rect class="file" x="281" y="530" width="44.68" height="24" rx="4"/>
<text class="label" x="303.34" y="546" textLength="28.68" lengthAdjust="spacingAndGlyphs">log.ts</text>
</g>
<g class="node n2">
<rect class="file" x="578" y="582" width="60" height="24" rx="4"/>
<text class="label" x="608" y="598" textLength="44" lengthAdjust="spacingAndGlyphs">errors.ts</text>
</g>
<g class="node n4">
<rect class="file" x="216" y="334" width="70.68" height="24" rx="4"/>
<text class="label" x="251.34" y="350" textLength="54.68" lengthAdjust="spacingAndGlyphs">svg-text.ts</text>
</g>
<g class="node n6">
<rect class="file" x="206" y="454" width="60.69" height="24" rx="4"/>
<text class="label" x="236.34" y="470" textLength="44.69" lengthAdjust="spacingAndGlyphs">config.ts</text>
</g>
<g class="node n7">
<rect class="file" x="308" y="334" width="84.02" height="24" rx="4"/>
<text class="label" x="350.01" y="350" textLength="68.02" lengthAdjust="spacingAndGlyphs">svg-image.ts</text>
</g>
<g class="node n8">
<rect class="file" x="572" y="394" width="41.34" height="24" rx="4"/>
<text class="label" x="592.67" y="410" textLength="25.34" lengthAdjust="spacingAndGlyphs">git.ts</text>
</g>
<g class="node n9">
<rect class="file" x="576" y="454" width="53.34" height="24" rx="4"/>
<text class="label" x="602.67" y="470" textLength="37.34" lengthAdjust="spacingAndGlyphs">shell.ts</text>
</g>
<g class="node n10">
<rect class="file" x="326" y="394" width="90.02" height="24" rx="4"/>
<text class="label" x="371.01" y="410" textLength="74.02" lengthAdjust="spacingAndGlyphs">release-link.ts</text>
</g>
<g class="node n13">
<rect class="file" x="691" y="334" width="50.01" height="24" rx="4"/>
<text class="label" x="716" y="350" textLength="34.01" lengthAdjust="spacingAndGlyphs">utils.ts</text>
</g>
<g class="node n17">
<rect class="file" x="526" y="334" width="84.04" height="24" rx="4"/>
<text class="label" x="568.02" y="350" textLength="68.04" lengthAdjust="spacingAndGlyphs">changelog.ts</text>
</g>
<g class="node n18">
<rect class="file" x="457" y="334" width="52.67" height="24" rx="4"/>
<text class="label" x="483.34" y="350" textLength="36.67" lengthAdjust="spacingAndGlyphs">retry.ts</text>
</g>
<g class="node n21">
<rect class="file" x="763" y="334" width="88.02" height="24" rx="4"/>
<text class="label" x="807.01" y="350" textLength="72.02" lengthAdjust="spacingAndGlyphs">benchmark.ts</text>
</g>
<g class="node n20">
<rect class="file" x="390" y="40" width="57.35" height="24" rx="4"/>
<text class="label" x="418.68" y="56" textLength="41.35" lengthAdjust="spacingAndGlyphs">index.ts</text>
</g>
<path class="edge from-n0 to-n1 inner-n22 out-n23 in-n24" d="M73,164 L73,256 L185,256 L185,512 L286,512 L286,530" marker-end="url(#arrow)"/>
<path class="edge from-n1 to-n2 inner-n22 inner-n24" d="M303,554 L303,572 L588,572 L588,582" marker-end="url(#arrow)"/>
<path class="edge from-n3 to-n4 inner-n22 out-n23 in-n24" d="M227,216 L227,240 L246,240 L246,334" marker-end="url(#arrow)"/>
<path class="edge from-n5 to-n6 inner-n22 out-n23 in-n24" d="M160,164 L160,240 L205,240 L205,428 L236,428 L236,454" marker-end="url(#arrow)"/>
<path class="edge from-n5 to-n1 inner-n22 out-n23 in-n24" d="M150,164 L150,248 L195,248 L195,504 L291,504 L291,530" marker-end="url(#arrow)"/>
<path class="edge from-n5 to-n7 inner-n22 out-n23 in-n24" d="M180,164 L180,174 L294,174 L294,240 L287,240 L287,324 L345,324 L345,334" marker-end="url(#arrow)"/>
<path class="edge from-n5 to-n3 inner-n22 inner-n23" d="M170,164 L170,182 L227,182 L227,192" marker-end="url(#arrow)"/>
<path class="edge from-n6 to-n1 inner-n22 inner-n24" d="M236,478 L236,496 L296,496 L296,530" marker-end="url(#arrow)"/>
<path class="edge from-n7 to-n8 inner-n22 inner-n24" d="M365,358 L365,376 L583,376 L583,394" marker-end="url(#arrow)"/>
<path class="edge from-n7 to-n1 inner-n22 inner-n24" d="M335,358 L335,368 L306,368 L306,530" marker-end="url(#arrow)"/>
<path class="edge from-n7 to-n10 inner-n22 inner-n24" d="M355,358 L355,384 L366,384 L366,394" marker-end="url(#arrow)"/>
<path class="edge from-n7 to-n9 inner-n22 inner-n24" d="M345,358 L345,376 L315,376 L315,428 L583,428 L583,454" marker-end="url(#arrow)"/>
<path class="edge from-n8 to-n9 inner-n22 inner-n24" d="M593,418 L593,454" marker-end="url(#arrow)"/>
<path class="edge from-n9 to-n2 inner-n22 inner-n24" d="M608,478 L608,582" marker-end="url(#arrow)"/>
<path class="edge from-n9 to-n1 inner-n22 inner-n24" d="M598,478 L598,504 L321,504 L321,530" marker-end="url(#arrow)"/>
<path class="edge from-n11 to-n2 inner-n22 out-n23 in-n24" d="M660,164 L660,564 L618,564 L618,582" marker-end="url(#arrow)"/>
<path class="edge from-n11 to-n1 inner-n22 out-n23 in-n24" d="M640,164 L640,512 L326,512 L326,530" marker-end="url(#arrow)"/>
<path class="edge from-n11 to-n9 inner-n22 out-n23 in-n24" d="M650,164 L650,436 L613,436 L613,454" marker-end="url(#arrow)"/>
<path class="edge from-n12 to-n9 inner-n22 out-n23 in-n24" d="M775,164 L775,248 L680,248 L680,444 L623,444 L623,454" marker-end="url(#arrow)"/>
<path class="edge from-n12 to-n13 inner-n22 out-n23 in-n24" d="M765,164 L765,240 L670,240 L670,316 L711,316 L711,334" marker-end="url(#arrow)"/>
<path class="edge from-n14 to-n1 inner-n22 out-n23 in-n24" d="M419,164 L419,240 L416,240 L416,384 L427,384 L427,488 L311,488 L311,530" marker-end="url(#arrow)"/>
<path class="edge from-n15 to-n2 inner-n22 out-n23 in-n24" d="M886,164 L886,264 L752,264 L752,572 L628,572 L628,582" marker-end="url(#arrow)"/>
<path class="edge from-n15 to-n13 inner-n22 out-n23 in-n24" d="M876,164 L876,256 L721,256 L721,334" marker-end="url(#arrow)"/>
<path class="edge from-n16 to-n17 inner-n22 out-n23 in-n24" d="M545,164 L545,256 L568,256 L568,334" marker-end="url(#arrow)"/>
<path class="edge from-n16 to-n2 inner-n22 out-n23 in-n24" d="M525,164 L525,256 L446,256 L446,564 L598,564 L598,582" marker-end="url(#arrow)"/>
<path class="edge from-n16 to-n8 inner-n22 out-n23 in-n24" d="M555,164 L555,248 L620,248 L620,316 L621,316 L621,368 L603,368 L603,394" marker-end="url(#arrow)"/>
<path class="edge from-n16 to-n1 inner-n22 out-n23 in-n24" d="M515,164 L515,248 L436,248 L436,496 L316,496 L316,530" marker-end="url(#arrow)"/>
<path class="edge from-n16 to-n10 inner-n22 out-n23 in-n24" d="M505,164 L505,240 L426,240 L426,368 L376,368 L376,394" marker-end="url(#arrow)"/>
<path class="edge from-n16 to-n18 inner-n22 out-n23 in-n24" d="M535,164 L535,264 L483,264 L483,334" marker-end="url(#arrow)"/>
<path class="edge from-n16 to-n9 inner-n22 out-n23 in-n24" d="M565,164 L565,240 L630,240 L630,428 L603,428 L603,454" marker-end="url(#arrow)"/>
<path class="edge from-n17 to-n8 inner-n22 inner-n24" d="M568,358 L568,368 L593,368 L593,394" marker-end="url(#arrow)"/>
<path class="edge from-n19 to-n1 inner-n22 out-n23 in-n24" d="M304,164 L304,248 L297,248 L297,488 L301,488 L301,530" marker-end="url(#arrow)"/>
<path class="edge from-n19 to-n7 inner-n22 out-n23 in-n24" d="M324,164 L324,240 L355,240 L355,334" marker-end="url(#arrow)"/>
<path class="edge from-n19 to-n4 inner-n22 out-n23 in-n24" d="M314,164 L314,256 L307,256 L307,316 L256,316 L256,334" marker-end="url(#arrow)"/>
<path class="edge from-n20 to-n0 inner-n22 in-n23" d="M397,64 L397,82 L73,82 L73,140" marker-end="url(#arrow)"/>
<path class="edge from-n20 to-n5 inner-n22 in-n23" d="M404,64 L404,90 L165,90 L165,140" marker-end="url(#arrow)"/>
<path class="edge from-n20 to-n11 inner-n22 in-n23" d="M433,64 L433,90 L650,90 L650,140" marker-end="url(#arrow)"/>
<path class="edge from-n20 to-n12 inner-n22 in-n23" d="M440,64 L440,82 L770,82 L770,140" marker-end="url(#arrow)"/>
<path class="edge from-n20 to-n14 inner-n22 in-n23" d="M419,64 L419,140" marker-end="url(#arrow)"/>
<path class="edge from-n20 to-n15 inner-n22 in-n23" d="M447,64 L447,74 L881,74 L881,140" marker-end="url(#arrow)"/>
<path class="edge from-n20 to-n16 inner-n22 in-n23" d="M426,64 L426,98 L535,98 L535,140" marker-end="url(#arrow)"/>
<path class="edge from-n20 to-n19 inner-n22 in-n23" d="M412,64 L412,98 L314,98 L314,140" marker-end="url(#arrow)"/>
<path class="edge from-n20 to-n1 inner-n22 in-n24" d="M390,64 L390,74 L22,74 L22,264 L175,264 L175,520 L281,520 L281,530" marker-end="url(#arrow)"/>
<g class="node n22">
<rect class="depth1" x="19" y="16" width="24.01" height="16" rx="2"/>
<text class="directory-label" x="22" y="28" textLength="18.01" lengthAdjust="spacingAndGlyphs">src</text>
</g>
<g class="node n23">
<rect class="depth2" x="40" y="116" width="69.35" height="16" rx="2"/>
<text class="directory-label" x="43" y="128" textLength="63.35" lengthAdjust="spacingAndGlyphs">commands</text>
</g>
<g class="node n24">
<rect class="depth2" x="172" y="282" width="20" height="16" rx="2"/>
<text class="directory-label" x="175" y="294" textLength="14" lengthAdjust="spacingAndGlyphs">lib</text>
</g>
</svg>
